<?xml version="1.0" encoding="UTF-8"?>
<svg version="1.1" xmlns="http://www.w3.org/2000/svg" width="512" height="512" >
<path d="M0 0 C1.6202018 -0.00668677 1.6202018 -0.00668677 3.27313495 -0.01350862 C4.46941052 -0.01332426 5.66568609 -0.01313989 6.89821243 -0.01294994 C8.16158912 -0.01662663 9.42496581 -0.02030332 10.72662663 -0.02409142 C14.24501371 -0.03412764 17.76338373 -0.03783082 21.2817831 -0.04048073 C25.07195323 -0.044379 28.86210979 -0.05395767 32.65227127 -0.0626936 C41.81134952 -0.08247168 50.97042889 -0.09252598 60.12952316 -0.10142139 C64.44029111 -0.10580214 68.75105782 -0.1111695 73.0618248 -0.11641026 C87.38775121 -0.13342398 101.71367685 -0.14791877 116.03961182 -0.155159 C119.75869371 -0.15706896 123.47777559 -0.15898928 127.19685745 -0.16094494 C128.12124317 -0.16142868 129.04562888 -0.16191242 129.99802628 -0.16241082 C144.97682576 -0.17071341 159.95554543 -0.19605355 174.93431005 -0.22852562 C190.30483263 -0.2615759 205.67531462 -0.27960592 221.04587293 -0.28280324 C229.67906341 -0.28497024 238.31213753 -0.29374652 246.94529343 -0.31926441 C254.29687862 -0.34094373 261.6483192 -0.34903554 268.99993274 -0.33929763 C272.75159667 -0.33474481 276.50296205 -0.33669565 280.25458527 -0.35605907 C284.32073875 -0.37686484 288.38622663 -0.36673164 292.45241165 -0.35352612 C293.63976434 -0.36449536 294.82711702 -0.37546461 296.05045009 -0.38676625 C302.33066346 -0.33735168 306.18348738 -0.12972957 310.92927933 4.13422108 C316.25317056 9.70010737 318.2036639 14.5189179 318.12459183 22.18890858 C318.11814651 23.29750233 318.1117012 24.40609608 318.10506058 25.54828358 C318.08830276 26.69039295 318.07154495 27.83250233 318.05427933 29.00922108 C318.04525589 30.17453358 318.03623245 31.33984608 318.02693558 32.54047108 C318.00345364 35.40526685 317.97061074 38.26963642 317.92927933 41.13422108 C318.55383011 41.11327381 319.17838089 41.09232655 319.82185745 41.07074451 C322.69082993 40.98686264 325.55954341 40.93533597 328.42927933 40.88422108 C329.41154495 40.85070545 330.39381058 40.81718983 331.40584183 40.78265858 C338.48228997 40.68830594 344.21093689 41.58969292 349.48567581 46.61786366 C354.00185491 51.78069381 354.03593196 55.62841033 353.92927933 62.13422108 C355.12552933 61.92797108 356.32177933 61.72172108 357.55427933 61.50922108 C373.92378696 59.76723904 390.25399934 66.11354203 402.92927933 76.13422108 C415.44087499 86.94050599 424.58554171 101.56454118 426.92927933 118.13422108 C426.97417307 120.73053381 426.87672116 123.29128409 426.74861526 125.88446522 C426.32842599 134.44932329 426.21759836 140.18970751 432.10896683 146.89203358 C438.24901702 154.45509969 439.36239209 165.88502268 438.71052933 175.29047108 C437.64960776 183.85945298 435.5279216 193.04313302 429.70271683 199.66547108 C427.70582989 201.94222319 427.70582989 201.94222319 427.91756058 204.45843983 C429.31895205 208.16482269 431.15015082 211.51211067 433.11677933 214.94672108 C433.5466011 215.70920155 433.97642288 216.47168201 434.41926956 217.25726795 C440.06790766 227.22976276 445.88056694 237.10988972 451.68928909 246.98968983 C452.47535335 248.34916776 453.22698633 249.72963508 453.92927933 251.13422108 C456.98313337 250.0237287 459.67466546 248.70900469 462.42927933 247.00922108 C465.8929913 245.15366109 467.15204227 244.56733716 470.92927933 245.13422108 C472.58943558 246.85687733 472.58943558 246.85687733 473.99177933 249.19672108 C474.48935745 250.01785389 474.98693558 250.8389867 475.49959183 251.68500233 C475.9713887 252.49324451 476.44318558 253.3014867 476.92927933 254.13422108 C477.3598262 254.78777576 477.79037308 255.44133045 478.23396683 256.11468983 C479.95071677 258.79637164 480.92927933 260.66771354 480.92927933 263.88422108 C479.73243268 266.57712604 478.41574735 267.61025681 475.92927933 269.13422108 C476.25927933 270.12422108 476.58927933 271.11422108 476.92927933 272.13422108 C477.46552933 271.78359608 478.00177933 271.43297108 478.55427933 271.07172108 C481.85968043 269.76695748 483.54010149 270.075103 486.92927933 271.13422108 C488.73135525 273.40941726 489.9814641 275.29704843 491.30427933 277.82172108 C491.65877151 278.4346703 492.0132637 279.04761951 492.37849808 279.67914295 C494.53293502 283.60121639 495.72677263 286.67838551 494.92927933 291.13422108 C493.10115433 292.99750233 493.10115433 292.99750233 490.67927933 294.44672108 C489.89037308 294.93785389 489.10146683 295.4289867 488.28865433 295.93500233 C486.13950903 297.02736591 484.28446656 297.6750676 481.92927933 298.13422108 C482.42427933 299.00047108 482.91927933 299.86672108 483.42927933 300.75922108 C485.050423 304.40679433 485.53809289 306.20963781 484.92927933 310.13422108 C482.33162308 312.32953358 482.33162308 312.32953358 478.86677933 314.25922108 C478.26986282 314.59759998 477.67294632 314.93597889 477.05794144 315.2846117 C475.35552698 316.24721892 473.64265515 317.19126248 471.92927933 318.13422108 C470.61534731 318.96529469 469.30244447 319.79800485 467.99177933 320.63422108 C464.52687058 322.33131924 462.73550649 322.6358169 458.92927933 322.13422108 C457.12068558 320.20453358 457.12068558 320.20453358 455.49177933 317.25922108 C455.17088333 316.69678699 454.84998734 316.13435291 454.51936722 315.55487537 C453.75798906 314.21743984 453.00649748 312.87435151 452.26228714 311.52728748 C450.74213802 308.79825787 449.1784575 306.096893 447.60896683 303.39593983 C444.69922942 298.38599621 441.80606922 293.36682978 438.92129898 288.34247303 C435.43297812 282.26784527 431.93144799 276.20087208 428.42927933 270.13422108 C424.91264219 264.04078569 421.39651593 257.94706333 417.8865242 251.84979725 C416.86980734 250.08376586 415.85272275 248.31794676 414.83552933 246.55218983 C413.5652706 244.34687953 412.29568915 242.14117891 411.02693558 239.93500233 C407.76289639 234.27008099 404.44499041 228.65098574 400.99788284 223.09515858 C399.92927933 221.13422108 399.92927933 221.13422108 399.92927933 219.13422108 C398.93927933 219.46422108 397.94927933 219.79422108 396.92927933 220.13422108 C388.45223236 220.72829984 380.77312576 219.97425909 372.57381058 217.79047108 C369.89812136 217.01379676 369.89812136 217.01379676 366.92927933 217.13422108 C366.92927933 235.94422108 366.92927933 254.75422108 366.92927933 274.13422108 C372.53927933 274.13422108 378.14927933 274.13422108 383.92927933 274.13422108 C385.58322049 275.78816224 385.05927615 277.73737521 385.06209183 280.00922108 C385.06338089 280.99406483 385.06466995 281.97890858 385.06599808 282.99359608 C385.06213089 284.03000233 385.0582637 285.06640858 385.05427933 286.13422108 C385.05814651 287.17062733 385.0620137 288.20703358 385.06599808 289.27484608 C385.06406448 290.7521117 385.06406448 290.7521117 385.06209183 292.25922108 C385.0609639 293.1692992 385.05983597 294.07937733 385.05867386 295.01703358 C384.92927933 297.13422108 384.92927933 297.13422108 383.92927933 298.13422108 C381.596305 298.17515045 379.26222708 298.17663831 376.92927933 298.13422108 C376.92927933 299.78422108 376.92927933 301.43422108 376.92927933 303.13422108 C378.63084183 303.10328358 378.63084183 303.10328358 380.36677933 303.07172108 C383.92927933 303.13422108 383.92927933 303.13422108 384.92927933 304.13422108 C385.20826758 307.77248154 385.16105226 311.42402906 385.17927933 315.07172108 C385.21021683 316.61376209 385.21021683 316.61376209 385.24177933 318.18695545 C385.24693558 319.16857655 385.25209183 320.15019764 385.25740433 321.16156483 C385.26675003 322.06640614 385.27609573 322.97124744 385.28572464 323.90350819 C385.10928421 325.00771107 385.10928421 325.00771107 384.92927933 326.13422108 C381.2484058 328.58813676 378.48572344 328.36224867 374.24177933 328.25922108 C373.5398848 328.25019764 372.83799026 328.2411742 372.1148262 328.23187733 C370.38616408 328.20835811 368.65767787 328.1724882 366.92927933 328.13422108 C366.96408401 329.07394764 366.96408401 329.07394764 366.99959183 330.03265858 C367.0176387 330.8499242 367.03568558 331.66718983 367.05427933 332.50922108 C367.07748245 333.32133045 367.10068558 334.13343983 367.12459183 334.97015858 C366.92927933 337.13422108 366.92927933 337.13422108 364.92927933 339.13422108 C360.63474726 339.59386798 356.30805115 339.45821887 351.99177933 339.44672108 C350.78586136 339.46283436 349.57994339 339.47894764 348.33748245 339.4955492 C346.60594925 339.496516 346.60594925 339.496516 344.83943558 339.49750233 C343.77861771 339.50048328 342.71779984 339.50346424 341.62483597 339.50653553 C338.92927933 339.13422108 338.92927933 339.13422108 337.05989456 337.799016 C335.92927933 336.13422108 335.92927933 336.13422108 335.92927933 333.13422108 C335.29041884 333.13536024 334.65155836 333.1364994 333.99333847 333.13767308 C296.14038628 333.20478804 258.28744289 333.25627101 220.43444341 333.28741707 C215.89072976 333.29116924 211.34701623 333.29505221 206.80330276 333.299016 C205.89872035 333.29980293 204.99413794 333.30058986 204.06214394 333.30140064 C189.40979639 333.31445926 174.7574841 333.33811562 160.10515748 333.36567947 C145.07370576 333.39372096 130.04227252 333.41039468 115.01079571 333.41648656 C105.73344021 333.42060561 96.45618437 333.4336215 87.17885955 333.45797048 C80.81950887 333.47381216 74.46020983 333.47862499 68.10084085 333.47472521 C64.43024616 333.47280121 60.75982581 333.475778 57.08926201 333.4918375 C53.11072928 333.50911744 49.13242439 333.50319278 45.15385818 333.49498463 C43.9923779 333.50372315 42.83089761 333.51246168 41.63422096 333.521465 C35.02762075 333.48449515 30.25122723 333.06576912 25.10115433 328.52093983 C24.3973262 327.67982655 24.3973262 327.67982655 23.67927933 326.82172108 C23.19974808 326.26871326 22.72021683 325.71570545 22.22615433 325.14593983 C19.36433726 320.7066754 18.68036294 316.27911074 18.73396683 311.07953358 C18.74041214 309.97093983 18.74685745 308.86234608 18.75349808 307.72015858 C18.77025589 306.5780492 18.7870137 305.43593983 18.80427933 304.25922108 C18.81330276 303.09390858 18.8223262 301.92859608 18.83162308 300.72797108 C18.85510501 297.86317531 18.88794792 294.99880573 18.92927933 292.13422108 C18.30472855 292.15516834 17.68017776 292.17611561 17.0367012 292.19769764 C14.16772873 292.28157951 11.29901525 292.33310619 8.42927933 292.38422108 C7.4470137 292.4177367 6.46474808 292.45125233 5.45271683 292.48578358 C-0.94017087 292.57102208 -5.76469565 291.86863795 -11.07072067 288.13422108 C-15.01826197 283.97891445 -17.31790395 280.26114649 -17.32798958 274.48895168 C-17.33443847 273.55462106 -17.34088736 272.62029044 -17.34753168 271.65764678 C-17.34288587 270.12293811 -17.34288587 270.12293811 -17.33814621 268.55722523 C-17.34267732 267.46773244 -17.34720844 266.37823966 -17.35187685 265.25573194 C-17.36457237 261.59230151 -17.36289715 257.92901877 -17.36124802 254.26556873 C-17.36723002 251.64420346 -17.3740348 249.02283994 -17.38160324 246.40147877 C-17.3982192 240.01249403 -17.40371305 233.6235462 -17.404828 227.23454167 C-17.40577816 222.04160491 -17.40988687 216.84868032 -17.41622925 211.65574741 C-17.43384306 196.93464772 -17.44306787 182.21357719 -17.4415683 167.49246688 C-17.44148839 166.69877702 -17.44140848 165.90508715 -17.44132614 165.08734608 C-17.44124438 164.2926878 -17.44116262 163.49802953 -17.44107838 162.6792907 C-17.44026537 149.79899418 -17.45940629 136.91881458 -17.48760287 124.03855188 C-17.51632272 110.81498282 -17.53014368 97.59147079 -17.52841532 84.36786973 C-17.52775112 76.9430802 -17.53325652 69.51841323 -17.55477142 62.09365177 C-17.57487265 55.11197737 -17.57431872 48.13056611 -17.55973816 41.14887905 C-17.55764164 38.58420084 -17.56240079 36.01950664 -17.57445908 33.45485592 C-17.58983747 29.95799118 -17.58065139 26.46202877 -17.56519699 22.96518421 C-17.57548412 21.94650654 -17.58577124 20.92782888 -17.5963701 19.87828219 C-17.52860678 12.95616946 -16.37611643 9.46333977 -11.43790817 4.48968983 C-7.24728111 1.20959168 -5.27523214 0.01006204 0 0 Z M-7.07072067 12.13422108 C-8.85925923 15.06689898 -9.3214147 17.24323682 -9.32519627 20.65734482 C-9.33102846 21.56442497 -9.33686065 22.47150513 -9.34286958 23.40607256 C-9.33909026 24.3987662 -9.33531093 25.39145985 -9.33141708 26.41423512 C-9.33524263 27.47176505 -9.33906818 28.52929498 -9.34300965 29.61887127 C-9.35335544 33.17408679 -9.34934447 36.72914128 -9.34537888 40.28436756 C-9.34972446 42.8285382 -9.35490709 45.37270752 -9.36086655 47.91687489 C-9.37288946 54.11703794 -9.37540598 60.31714131 -9.37306628 66.51731377 C-9.37128414 71.55627316 -9.37303054 76.59521939 -9.37729073 81.63417721 C-9.37788591 82.35101019 -9.3784811 83.06784318 -9.37909433 83.80639838 C-9.38030606 85.26258659 -9.3815202 86.7187748 -9.38273671 88.174963 C-9.39361613 101.83478626 -9.39144782 115.49458483 -9.38535186 129.15440948 C-9.38018208 141.65383736 -9.39143901 154.15318733 -9.41045008 166.6525998 C-9.4298167 179.48404878 -9.43808656 192.31546087 -9.43432683 205.14692456 C-9.43241302 212.35200506 -9.43491974 219.55701923 -9.44904137 226.76208782 C-9.46218362 233.53607711 -9.45971116 240.3098849 -9.44663048 247.08388233 C-9.44425699 249.57318708 -9.44702682 252.06250272 -9.4552536 254.55179501 C-9.46565727 257.94378795 -9.4576714 261.33524997 -9.44494247 264.7272234 C-9.45231676 265.71768632 -9.45969104 266.70814924 -9.46728879 267.72862619 C-9.42806931 272.67933391 -9.33335397 276.13392338 -6.07072067 280.13422108 C-2.33032362 283.51264422 1.09023649 284.26936534 6.03865433 284.23187733 C7.16980667 284.22704334 7.16980667 284.22704334 8.32381058 284.2221117 C9.10111526 284.2137328 9.87841995 284.20535389 10.67927933 284.19672108 C11.86843948 284.1899535 11.86843948 284.1899535 13.08162308 284.1830492 C15.03087441 284.17130672 16.98008671 284.15337253 18.92927933 284.13422108 C18.93166768 282.97777371 18.93405603 281.82132635 18.93651676 280.62983513 C18.99391289 253.16003963 19.06666919 225.69031961 19.15826561 198.22061596 C19.16953338 194.83740722 19.18067189 191.45419808 19.1917305 188.07098866 C19.19393418 187.39747051 19.19613787 186.72395237 19.19840833 186.03002458 C19.23375246 175.13355305 19.25863285 164.23708158 19.27962635 153.34057403 C19.3014114 142.15449544 19.33470893 130.96848363 19.37798089 119.7824654 C19.4019142 113.50165449 19.42064235 107.22092562 19.42689323 100.94007015 C19.43294347 95.02625637 19.45294162 89.1126525 19.48355484 83.19891644 C19.49233595 81.03059694 19.4960575 78.86225001 19.49428749 76.69391346 C19.492631 73.72781601 19.50936651 70.76235561 19.53055191 67.79634571 C19.52570433 66.94320697 19.52085676 66.09006823 19.51586229 65.2110768 C19.58712035 59.14388701 20.21429724 52.35203437 24.27488977 47.53939539 C28.66259454 43.68736276 33.05317996 41.88832431 38.83929539 41.87250805 C39.80718441 41.86504256 40.77507344 41.85757706 41.77229244 41.84988534 C43.3554623 41.85278745 43.3554623 41.85278745 44.97061539 41.85574818 C46.66148892 41.84705957 46.66148892 41.84705957 48.38652152 41.83819544 C52.17139213 41.82116271 55.95614104 41.81831608 59.74104691 41.81537342 C62.4511178 41.80718059 65.16117441 41.79599667 67.87123489 41.78493214 C73.70975414 41.76266218 79.54825587 41.74764731 85.3868084 41.73756504 C93.82836041 41.7229773 102.26985138 41.69744021 110.71136757 41.66923375 C124.40727968 41.6237675 138.10320057 41.587152 151.79915237 41.55609608 C165.10320453 41.52590986 178.40723519 41.49155925 191.71126175 41.45160389 C192.941427 41.44791157 192.941427 41.44791157 194.19644407 41.44414465 C198.3107107 41.43177004 202.42497708 41.4193135 206.53924334 41.40681624 C240.66922599 41.30325093 274.79923308 41.21404686 308.92927933 41.13422108 C309.04590194 37.09279892 309.11667282 33.05181243 309.17927933 29.00922108 C309.22955276 27.29605701 309.22955276 27.29605701 309.28084183 25.54828358 C309.41909353 17.0078544 309.41909353 17.0078544 304.92927933 10.13422108 C301.7953401 8.18506086 299.3997043 7.88260574 295.73740196 7.87695217 C294.6811525 7.87050328 293.62490303 7.86405439 292.53664601 7.85741007 C290.79766256 7.86205588 290.79766256 7.86205588 289.02354813 7.86679554 C287.17492245 7.85999887 287.17492245 7.85999887 285.2889508 7.85306489 C281.86622707 7.84258069 278.44371317 7.84109742 275.02098823 7.84345365 C271.33036904 7.84386136 267.63978135 7.83282701 263.94917679 7.82333851 C256.71797134 7.80671797 249.4867985 7.80122849 242.25557555 7.80011375 C236.37852412 7.79916381 230.50148345 7.79505621 224.62443542 7.7887125 C207.96652295 7.77109748 191.30863626 7.76187408 174.65071441 7.76337345 C173.7524797 7.76345336 172.85424499 7.76353327 171.92879105 7.76361561 C171.02946125 7.76369737 170.13013146 7.76377913 169.20354925 7.76386337 C154.6257954 7.76467642 140.04814483 7.74553464 125.47042085 7.71733887 C110.50663366 7.68862447 95.54289687 7.67479777 80.57908142 7.67652643 C72.17619903 7.67719081 63.77342492 7.67167729 55.37056732 7.65017033 C48.21664941 7.63197752 41.06288886 7.6275955 33.90895785 7.64118917 C30.25854622 7.64772843 26.60843666 7.64780193 22.95805359 7.63048267 C19.00155435 7.611904 15.0454984 7.62428155 11.08897781 7.63974476 C9.93411696 7.62945763 8.7792561 7.61917051 7.58939946 7.60857165 C1.43773456 7.66187581 -2.49004015 7.83617232 -7.07072067 12.13422108 Z M29.01008987 54.27167225 C27.51609354 58.22855209 27.55567956 61.74095695 27.63631058 65.93500233 C27.64055542 66.7713773 27.64480026 67.60775227 27.64917374 68.46947193 C27.66590569 71.12888873 27.70354707 73.78753508 27.74177933 76.44672108 C27.75683328 78.25465281 27.77052045 80.06259647 27.78279495 81.8705492 C27.81579117 86.29206797 27.86753505 90.71301409 27.92927933 95.13422108 C62.86040461 95.34017998 97.79140711 95.49878681 132.72301168 95.59380904 C136.84613054 95.60506553 140.96924819 95.61671441 145.09236526 95.62860584 C145.91321046 95.63096664 146.73405566 95.63332743 147.57977496 95.63575976 C160.87431909 95.67493157 174.16851328 95.74589777 187.46284975 95.82859624 C201.10210656 95.91273327 214.74118 95.96274429 228.38068569 95.98101753 C236.79856385 95.99337262 245.21545302 96.03240446 253.63302676 96.10546928 C259.40378248 96.15301078 265.17402628 96.16742981 270.94496365 96.15573347 C274.2763089 96.14996219 277.60453055 96.16375775 280.93580818 96.20707035 C284.54782312 96.25173854 288.15557897 96.24113401 291.76768875 96.21651173 C292.82022248 96.2427273 293.87275622 96.26894287 294.95718491 96.29595286 C300.49275564 96.22995701 300.49275564 96.22995701 304.87184119 93.16587341 C306.40742683 90.88108245 307.68280885 88.58574166 308.92927933 86.13422108 C317.52452808 74.10087282 332.10457373 67.28163276 345.92927933 63.13422108 C345.88959177 57.97509317 345.88959177 57.97509317 343.66756058 53.52484608 C339.16877641 49.67198306 335.54763059 49.01075585 329.81828213 49.00279331 C328.78006634 48.99895217 327.74185055 48.99511102 326.67217368 48.99115348 C324.96339552 48.9924532 324.96339552 48.9924532 323.22009659 48.99377918 C322.0088028 48.99080806 320.79750901 48.98783694 319.54950935 48.98477578 C316.18577795 48.97759521 312.82209762 48.97491644 309.45836222 48.97417831 C305.83112874 48.97232706 302.20390632 48.96477939 298.57667923 48.9580431 C290.6448824 48.94446261 282.71309062 48.93843561 274.78128409 48.93403244 C269.82894963 48.93126976 264.87661712 48.92703238 259.92428398 48.92252827 C246.2133455 48.9103364 232.50240859 48.90003664 218.79146481 48.89665318 C217.91398568 48.89643361 217.03650656 48.89621404 216.13243716 48.89598782 C215.25285822 48.89576955 214.37327928 48.89555127 213.46704644 48.89532638 C211.68468201 48.89488291 209.90231758 48.89443635 208.11995316 48.8939867 C206.79378154 48.89365456 206.79378154 48.89365456 205.44081859 48.8933157 C191.11272246 48.88936708 176.78467717 48.87191073 162.45660069 48.84862718 C147.74706681 48.8249166 133.03755844 48.81245147 118.32800514 48.81128526 C110.06874784 48.81036838 101.80955681 48.80461272 93.55031776 48.78646564 C86.51795688 48.77106869 79.48568273 48.76594182 72.45330819 48.77420375 C68.86560074 48.77811159 65.27806798 48.77717424 61.690382 48.7631464 C57.7999835 48.74807409 53.90983111 48.75626999 50.01941299 48.7667284 C48.32067308 48.75464379 48.32067308 48.75464379 46.58761519 48.74231505 C39.70539899 48.78567169 33.89107795 48.83558898 29.01008987 54.27167225 Z M314.92927933 91.13422108 C304.90798406 104.07539014 300.69458673 118.87743515 301.92927933 135.13422108 C303.09589585 144.01660516 303.09589585 144.01660516 307.92927933 151.13422108 C312.87418818 144.10672145 313.48797508 138.69988437 312.99177933 130.25922108 C312.23958582 116.68515433 315.90879045 105.00838102 325.08162308 94.72015858 C335.57340247 84.55146477 347.6450355 80.60466024 361.92927933 80.13422108 C374.09923917 80.45448318 386.37756066 85.64942793 395.19099808 94.14203358 C405.13987762 105.54412024 408.84194805 118.30039916 408.24568558 133.18500233 C407.18173776 146.46464725 400.81498132 157.37759672 390.92927933 166.13422108 C392.3718159 169.50013974 394.2619266 171.64469187 396.92927933 174.13422108 C410.74110897 161.57295951 417.86800526 147.25737651 419.17927933 128.57172108 C418.82453488 113.16989955 412.33433168 97.40295351 401.53474808 86.38031483 C388.07798308 74.77965535 372.83678943 69.10584684 354.98299026 69.95502186 C338.93209388 71.3555637 325.52213268 79.36875618 314.92927933 91.13422108 Z M328.82771683 102.41937733 C321.66026614 111.79806281 319.08833982 122.47786516 319.92927933 134.13422108 C320.6795137 133.66371326 321.42974808 133.19320545 322.20271683 132.70843983 C334.94945284 124.95444298 348.19978435 121.40945265 363.16365433 124.61249256 C363.8623262 124.7975536 364.56099808 124.98261463 365.28084183 125.17328358 C369.85142999 126.37710016 373.33201792 125.8660737 377.83455276 124.59735584 C380.18279735 124.07816937 382.29090064 124.02115455 384.69490433 124.03656483 C385.58435745 124.03978748 386.47381058 124.04301014 387.39021683 124.04633045 C388.31060745 124.05470936 389.23099808 124.06308826 390.17927933 124.07172108 C391.58306839 124.07848866 391.58306839 124.07848866 393.01521683 124.08539295 C395.31996974 124.0971519 397.62459159 124.11358682 399.92927933 124.13422108 C398.94147831 113.59767689 394.89724813 105.02056033 386.98787308 97.81390858 C378.08501158 90.54971419 368.52698738 87.42103606 356.96834183 87.79437733 C345.8155345 89.04154216 336.40263152 94.18271358 328.82771683 102.41937733 Z M27.92927933 103.13422108 C27.84677933 138.32047108 27.76427933 173.50672108 27.67927933 209.75922108 C27.64286331 220.87690174 27.6064473 231.99458241 27.56892776 243.44916248 C27.55555155 253.39903488 27.55555155 253.39903488 27.54750443 263.34891224 C27.54377184 267.78706295 27.52875835 272.22502305 27.50697708 276.66312122 C27.47957299 282.32173155 27.47130865 287.98006405 27.47699022 293.63873458 C27.4758019 295.71698871 27.46785077 297.79525239 27.4524188 299.87344956 C27.43255266 302.67879453 27.43730694 305.48305711 27.44826126 308.2884264 C27.4366106 309.10337763 27.42495995 309.91832886 27.41295624 310.75797558 C27.46787633 315.98294608 28.39426155 319.0383591 31.92927933 323.13422108 C35.0468161 325.1014086 37.45291611 325.38336662 41.10668182 325.38031673 C42.68615612 325.38628988 42.68615612 325.38628988 44.297539 325.39238369 C46.03098868 325.38364517 46.03098868 325.38364517 47.79945755 325.37473011 C49.02794096 325.37643896 50.25642437 325.37814781 51.52213454 325.37990844 C54.93365472 325.38263627 58.34494618 325.37637385 61.75643873 325.36635232 C65.43465771 325.35772489 69.11286948 325.36063748 72.79109573 325.36215687 C79.16440636 325.36320617 85.53767607 325.35692487 91.91097641 325.34568119 C101.12572172 325.32943525 110.34044723 325.32421911 119.55520532 325.32170521 C134.50510318 325.31732668 149.45497924 325.3040133 164.40486526 325.28509998 C178.92830165 325.26674526 193.45173212 325.25258676 207.97517776 325.24408436 C208.87022554 325.24355891 209.76527332 325.24303346 210.68744376 325.24249209 C215.17758256 325.23988204 219.66772141 325.23735462 224.15786028 325.23486829 C261.41501933 325.21413088 298.67213805 325.17725847 335.92927933 325.13422108 C335.92927933 289.49422108 335.92927933 253.85422108 335.92927933 217.13422108 C331.96927933 215.15422108 328.00927933 213.17422108 323.92927933 211.13422108 C312.74968765 203.31128099 306.58356594 192.39138378 303.92927933 179.13422108 C303.61369028 175.53053531 303.53288759 171.92018804 303.42757034 168.30536366 C303.18586292 162.87524957 301.99488946 158.79575547 299.28084183 154.01703358 C295.45772901 145.86253282 294.444423 137.73839338 294.55427933 128.82172108 C294.54267776 127.89166248 294.5310762 126.96160389 294.51912308 126.0033617 C294.55289375 117.76894713 296.12179203 111.56916179 297.92927933 103.13422108 C208.82927933 103.13422108 119.72927933 103.13422108 27.92927933 103.13422108 Z M321.61677933 144.38422108 C312.99926615 154.69383705 311.0297454 164.91503563 311.70711136 178.00140858 C312.70203095 187.5526367 318.70349781 196.79919778 325.99177933 202.84515858 C331.67829143 206.84602602 337.50008293 209.21185908 343.92927933 212.13422108 C344.25927933 251.07422108 344.58927933 290.01422108 344.92927933 330.13422108 C349.54927933 330.13422108 354.16927933 330.13422108 358.92927933 330.13422108 C358.92927933 326.83422108 358.92927933 323.53422108 358.92927933 320.13422108 C364.86927933 319.80422108 370.80927933 319.47422108 376.92927933 319.13422108 C376.92927933 316.49422108 376.92927933 313.85422108 376.92927933 311.13422108 C374.61927933 310.80422108 372.30927933 310.47422108 369.92927933 310.13422108 C369.59927933 303.86422108 369.26927933 297.59422108 368.92927933 291.13422108 C371.56927933 290.80422108 374.20927933 290.47422108 376.92927933 290.13422108 C376.92927933 287.49422108 376.92927933 284.85422108 376.92927933 282.13422108 C368.51427933 281.63922108 368.51427933 281.63922108 359.92927933 281.13422108 C359.59927933 258.03422108 359.26927933 234.93422108 358.92927933 211.13422108 C359.58927933 210.80422108 360.24927933 210.47422108 360.92927933 210.13422108 C360.43299026 209.75652576 359.9367012 209.37883045 359.42537308 208.98968983 C349.5415998 200.98139535 344.04206962 190.57003062 341.92927933 178.13422108 C340.99699071 164.77739384 343.52739241 153.37198168 350.92927933 142.13422108 C351.48615433 141.57863514 352.04302933 141.0230492 352.61677933 140.45062733 C354.1646311 139.20798877 354.1646311 139.20798877 353.92927933 137.13422108 C354.54802933 136.86609608 355.16677933 136.59797108 355.80427933 136.32172108 C358.22880263 135.17865259 358.22880263 135.17865259 359.92927933 132.13422108 C346.3488209 127.6074016 330.94861823 134.49317086 321.61677933 144.38422108 Z M357.42927933 147.05609608 C350.42395647 156.76138712 348.70948866 167.37112019 349.92927933 179.13422108 C351.40151334 185.50125372 353.96150316 190.92651486 357.92927933 196.13422108 C358.76459183 197.37172108 358.76459183 197.37172108 359.61677933 198.63422108 C365.26107143 204.73615848 372.92208157 208.98243596 380.92927933 211.13422108 C383.85996278 211.24709506 386.65877034 211.06756589 389.57966995 210.81927967 C402.04222035 209.78209762 402.04222035 209.78209762 406.67146683 213.09906483 C408.36272121 215.89903041 409.65600769 218.70742218 410.8701973 221.74115467 C413.12310809 226.8317567 416.16297532 231.5358784 418.99177933 236.32172108 C420.30887896 238.6049783 421.62262855 240.89017097 422.93318558 243.17718983 C426.75505868 249.83540332 430.59104969 256.48542659 434.42927933 263.13422108 C437.94591646 269.22765647 441.46204273 275.32137882 444.97203445 281.41864491 C445.98875131 283.18467629 447.00583591 284.95049539 448.02302933 286.71625233 C449.29328806 288.92156262 450.56286951 291.12726324 451.83162308 293.33343983 C455.46568721 299.64056002 459.16026192 305.90677444 462.92927933 312.13422108 C466.00502741 310.92517971 468.89175571 309.68570556 471.74177933 308.00922108 C472.79365433 307.39047108 473.84552933 306.77172108 474.92927933 306.13422108 C474.41365433 305.08234608 473.89802933 304.03047108 473.36677933 302.94672108 C472.23846794 300.64496584 471.92820617 299.22007358 471.96052933 296.63422108 C473.37525336 292.98332035 475.59643462 292.14448508 478.99177933 290.32172108 C480.09650589 289.71715076 481.20123245 289.11258045 482.33943558 288.48968983 C483.19408401 288.04238514 484.04873245 287.59508045 484.92927933 287.13422108 C483.85526825 284.21904816 483.15117757 282.35611932 480.92927933 280.13422108 C479.93927933 280.79422108 478.94927933 281.45422108 477.92927933 282.13422108 C474.74177933 282.25922108 474.74177933 282.25922108 471.92927933 282.13422108 C470.72643532 280.05849026 469.54222232 277.97539013 468.36677933 275.88422108 C468.02453323 275.29769764 467.68228714 274.7111742 467.32966995 274.10687733 C464.8965178 269.73211892 464.8965178 269.73211892 465.05427933 266.85297108 C466.4015152 264.20661491 468.554993 262.8388369 470.92927933 261.13422108 C468.94927933 258.16422108 468.94927933 258.16422108 466.92927933 255.13422108 C466.2048262 255.56734608 465.48037308 256.00047108 464.73396683 256.44672108 C463.76716995 257.00359608 462.80037308 257.56047108 461.80427933 258.13422108 C460.8529512 258.69109608 459.90162308 259.24797108 458.92146683 259.82172108 C455.47894795 261.33175547 453.62719363 261.91847673 449.92927933 261.13422108 C448.07415978 258.81774136 446.84093126 256.85869137 445.49177933 254.25922108 C444.63311637 252.70544195 443.77368954 251.15208482 442.91365433 249.59906483 C442.44508011 248.73523182 441.97650589 247.87139881 441.49373245 246.98138905 C438.50439535 241.54105677 435.35623319 236.19104415 432.24177933 230.82172108 C430.40785912 227.63826727 428.57571585 224.45392313 426.75203323 221.26459217 C425.50303383 219.11957873 424.22224437 216.99285241 422.91511917 214.88275623 C422.27397171 213.83780994 421.63282425 212.79286366 420.97224808 211.71625233 C420.38854446 210.78659657 419.80484085 209.8569408 419.20344925 208.89911366 C417.74018666 205.72389832 417.60187253 203.59249359 417.92927933 200.13422108 C419.06599808 198.40375233 419.06599808 198.40375233 420.61677933 196.94672108 C428.07612852 189.01011494 430.29688489 178.99260304 430.21834183 168.41547108 C429.64750806 161.93573646 428.06691032 154.50635977 422.92927933 150.13422108 C422.72174026 150.74008045 422.5142012 151.34593983 422.30037308 151.97015858 C417.86912657 164.02166581 409.33229451 176.70706707 397.92927933 183.13422108 C393.88250949 183.08004745 392.36328087 182.55935152 389.44490433 179.70062733 C388.32341995 178.21369373 388.32341995 178.21369373 387.17927933 176.69672108 C386.42131058 175.70801014 385.66334183 174.7192992 384.88240433 173.70062733 C384.23787308 172.85371326 383.59334183 172.0067992 382.92927933 171.13422108 C382.26927933 170.47422108 381.60927933 169.81422108 380.92927933 169.13422108 C380.24177933 166.44672108 380.24177933 166.44672108 380.92927933 163.13422108 C382.99161458 161.26808143 385.20849521 159.72961904 387.47224808 158.11468983 C393.75869055 153.04755734 397.7530125 145.81516282 399.92927933 138.13422108 C400.18282142 134.79951617 400.18282142 134.79951617 399.92927933 132.13422108 C383.94776657 127.87248434 367.6814161 134.62063388 357.42927933 147.05609608 Z " fill="#ffffff" transform="translate(17.070720672607422,84.86577892303467)"/>
<path d="M0 0 C1.77656482 -0.00570901 3.55312597 -0.01267531 5.3296814 -0.02079773 C10.13557213 -0.03868651 14.94127984 -0.03756871 19.74719381 -0.03185534 C23.76788294 -0.02875701 27.78853723 -0.03486317 31.80922139 -0.04089409 C41.29927623 -0.05492392 50.78924101 -0.05339112 60.27929688 -0.04199219 C70.05017782 -0.03051485 79.82078415 -0.04458374 89.59162891 -0.07138866 C97.99872636 -0.09358373 106.40573786 -0.1001744 114.81286252 -0.09431225 C119.82604178 -0.09095029 124.83904509 -0.09330691 129.85219955 -0.11056328 C134.56867127 -0.12609089 139.28473795 -0.12201263 144.001194 -0.10325813 C145.72524186 -0.09958818 147.44932012 -0.10263388 149.17333984 -0.11314392 C162.90499046 -0.19041946 173.16428963 1.26767321 183.35205078 11.18139648 C191.54871941 19.88271075 192.91271106 29.25616658 192.796875 40.78540039 C192.43284954 52.93061333 188.45816469 60.75725785 179.75830078 69.15405273 C169.89373282 77.12979564 158.73642851 76.98388624 146.66455078 76.92163086 C144.8876895 76.92706008 143.11083273 76.9341872 141.33398438 76.94287109 C136.53641593 76.96101232 131.7391939 76.95407514 126.94161987 76.94135475 C121.90459303 76.93117918 116.8675945 76.94063303 111.83056641 76.94689941 C103.37413242 76.95416259 94.91783848 76.94462307 86.46142578 76.92553711 C76.70526149 76.90377096 66.94943165 76.91082327 57.19327545 76.93284273 C48.79462078 76.95103468 40.3960664 76.95353653 31.99739838 76.94308805 C26.99096704 76.93687396 21.98469255 76.93595987 16.97827148 76.94923401 C12.26996317 76.96084726 7.56208318 76.95266741 2.8538208 76.92965698 C1.13300281 76.92439901 -0.58785165 76.92583336 -2.30865479 76.93470764 C-15.12373684 76.99466806 -26.9670509 75.86505436 -36.55419922 66.40405273 C-43.48442943 58.05627543 -46.12227774 49.26965443 -45.99169922 38.52905273 C-45.98412598 37.6528125 -45.97655273 36.77657227 -45.96875 35.8737793 C-45.70816388 25.61391409 -42.88563579 16.8332418 -35.55419922 9.40405273 C-24.65489419 0.35557309 -13.49674547 -0.03919465 0 0 Z M-30.05810547 16.85327148 C-37.0507131 24.80605807 -38.15564487 33.21113176 -37.55419922 43.40405273 C-36.61166344 50.78276139 -33.2473973 57.24388386 -27.67919922 62.21655273 C-20.55438218 67.20392466 -14.01401772 68.52422361 -5.49043274 68.54449463 C-4.44105153 68.54895131 -4.44105153 68.54895131 -3.3704707 68.55349803 C-1.03236863 68.56215143 1.30568203 68.56369043 3.64379883 68.56518555 C5.32287199 68.56981614 7.00194411 68.57484113 8.68101501 68.58023071 C13.23909585 68.59333446 17.79716198 68.59979586 22.3552587 68.60424137 C25.20554345 68.6071757 28.05582421 68.61128122 30.90610695 68.61574554 C39.83138405 68.62941588 48.75665199 68.63908449 57.68193883 68.64294744 C67.97090878 68.64742552 78.25974572 68.6649638 88.54867524 68.69394803 C96.51065265 68.7155954 104.47259271 68.72565337 112.43459922 68.72698855 C117.18566082 68.7280345 121.93659729 68.73389733 126.68762779 68.75180817 C131.16019897 68.76834147 135.63255167 68.77041893 140.10514259 68.76166916 C141.74092318 68.76090156 143.37671576 68.76520469 145.01246643 68.77512741 C156.28919808 68.83948726 166.5437297 68.55831069 175.68798828 61.15405273 C183.13020246 53.74491506 183.79433878 46.08697891 183.83081055 36.10083008 C183.69773799 28.1207924 182.23652917 22.59096176 176.80126953 16.58764648 C169.48357002 9.73246523 161.05382278 8.28351833 151.33097839 8.27033997 C150.29150786 8.26694163 150.29150786 8.26694163 149.23103791 8.26347464 C146.92134206 8.25717155 144.61170543 8.25796162 142.30200195 8.25878906 C140.64086329 8.25579526 138.97972532 8.25239222 137.31858826 8.24861145 C132.81434695 8.23978957 128.31012465 8.23743409 123.80587554 8.23679566 C120.98926265 8.23608411 118.17265456 8.23394778 115.35604286 8.23129845 C105.52259643 8.22205087 95.68916353 8.21796281 85.85571289 8.21875 C76.70125412 8.21935057 67.54685431 8.20880131 58.39241046 8.19300634 C50.52299669 8.17991421 42.65360217 8.17456681 34.7841776 8.17520541 C30.08852617 8.17545991 25.39292715 8.17263502 20.69728661 8.16202736 C16.2789099 8.15231827 11.86063542 8.15228643 7.44225502 8.15954399 C5.82540868 8.16058636 4.20855588 8.15824771 2.59172058 8.15218353 C-15.1685344 8.0519136 -15.1685344 8.0519136 -30.05810547 16.85327148 Z " fill="#ffffff" transform="translate(130.55419921875,265.595947265625)"/>
<path d="M0 0 C3.0625 0.25 3.0625 0.25 6 1 C7.32229189 3.64458379 7.09677194 5.67761301 7.0625 8.625 C7.05347656 9.62789063 7.04445312 10.63078125 7.03515625 11.6640625 C7.02355469 12.43492187 7.01195312 13.20578125 7 14 C7.59167969 13.77183594 8.18335938 13.54367187 8.79296875 13.30859375 C16.76041954 10.41015733 16.76041954 10.41015733 21 12 C22 13 22 13 22.1875 15.4375 C22 18 22 18 20 20 C17.6171875 20.6328125 17.6171875 20.6328125 14.875 21.125 C13.96492188 21.29257812 13.05484375 21.46015625 12.1171875 21.6328125 C11.41851562 21.75398438 10.71984375 21.87515625 10 22 C10.433125 22.59167969 10.86625 23.18335938 11.3125 23.79296875 C11.869375 24.58316406 12.42625 25.37335938 13 26.1875 C13.556875 26.96480469 14.11375 27.74210937 14.6875 28.54296875 C16.17258645 31.32308593 16.41753095 32.89461353 16 36 C14 38 14 38 11.75 38.125 C7.45843634 36.36936032 5.50534448 32.77954029 3 29 C0.0702992 31.82506863 -2.50174717 34.78796065 -5 38 C-9.875 37.125 -9.875 37.125 -11 36 C-10.75130306 29.78257655 -8.74852645 26.70968708 -5 22 C-5.69867188 21.87882812 -6.39734375 21.75765625 -7.1171875 21.6328125 C-8.02726562 21.46523438 -8.93734375 21.29765625 -9.875 21.125 C-10.77992187 20.96257812 -11.68484375 20.80015625 -12.6171875 20.6328125 C-15 20 -15 20 -17 18 C-17.3125 15.5 -17.3125 15.5 -17 13 C-14 11 -14 11 -11.58984375 11.20703125 C-10.71457031 11.40683594 -9.83929688 11.60664063 -8.9375 11.8125 C-7.62072266 12.10060547 -7.62072266 12.10060547 -6.27734375 12.39453125 C-4 13 -4 13 -2 14 C-2.02320313 13.15695312 -2.04640625 12.31390625 -2.0703125 11.4453125 C-2.08835938 10.34960938 -2.10640625 9.25390625 -2.125 8.125 C-2.14820313 7.03445313 -2.17140625 5.94390625 -2.1953125 4.8203125 C-2 2 -2 2 0 0 Z " fill="#ffffff" transform="translate(135,285)"/>
<path d="M0 0 C2.9375 0.375 2.9375 0.375 6 1 C7.32229189 3.64458379 7.09677194 5.67761301 7.0625 8.625 C7.05347656 9.62789063 7.04445313 10.63078125 7.03515625 11.6640625 C7.02355469 12.43492187 7.01195312 13.20578125 7 14 C7.59167969 13.77183594 8.18335938 13.54367187 8.79296875 13.30859375 C16.76041954 10.41015733 16.76041954 10.41015733 21 12 C22 13 22 13 22.1875 15.4375 C22 18 22 18 20 20 C17.6171875 20.6328125 17.6171875 20.6328125 14.875 21.125 C13.96492188 21.29257812 13.05484375 21.46015625 12.1171875 21.6328125 C11.41851562 21.75398438 10.71984375 21.87515625 10 22 C10.433125 22.59167969 10.86625 23.18335938 11.3125 23.79296875 C11.869375 24.58316406 12.42625 25.37335938 13 26.1875 C13.556875 26.96480469 14.11375 27.74210937 14.6875 28.54296875 C16.17258645 31.32308593 16.41753095 32.89461353 16 36 C14 38 14 38 11.75 38.125 C7.45843634 36.36936032 5.50534448 32.77954029 3 29 C0.0702992 31.82506863 -2.50174717 34.78796065 -5 38 C-9.875 37.125 -9.875 37.125 -11 36 C-10.75130306 29.78257655 -8.74852645 26.70968708 -5 22 C-5.69867188 21.87882812 -6.39734375 21.75765625 -7.1171875 21.6328125 C-8.02726562 21.46523438 -8.93734375 21.29765625 -9.875 21.125 C-10.77992188 20.96257812 -11.68484375 20.80015625 -12.6171875 20.6328125 C-15 20 -15 20 -17 18 C-17.3125 15.5 -17.3125 15.5 -17 13 C-14 11 -14 11 -11.58984375 11.20703125 C-10.71457031 11.40683594 -9.83929688 11.60664063 -8.9375 11.8125 C-7.62072266 12.10060547 -7.62072266 12.10060547 -6.27734375 12.39453125 C-4 13 -4 13 -2 14 C-2.02320313 13.24074219 -2.04640625 12.48148437 -2.0703125 11.69921875 C-2.09738281 10.20841797 -2.09738281 10.20841797 -2.125 8.6875 C-2.14820313 7.70136719 -2.17140625 6.71523438 -2.1953125 5.69921875 C-2 3 -2 3 0 0 Z " fill="#ffffff" transform="translate(268,285)"/>
<path d="M0 0 C4.55555556 0.55555556 4.55555556 0.55555556 6 2 C6.07244053 4.01964199 6.08377188 6.04167124 6.0625 8.0625 C6.05347656 9.16722656 6.04445312 10.27195312 6.03515625 11.41015625 C6.02355469 12.26480469 6.01195312 13.11945313 6 14 C6.67546875 13.77183594 7.3509375 13.54367187 8.046875 13.30859375 C8.93890625 13.02113281 9.8309375 12.73367188 10.75 12.4375 C12.07257813 12.00244141 12.07257813 12.00244141 13.421875 11.55859375 C16.10553661 10.97713373 17.47833258 10.96431517 20 12 C21.25 14.0625 21.25 14.0625 22 16 C20.13792141 19.60001861 18.01013392 20.53489703 14.3125 21.75 C12.87888841 22.17985483 11.44245638 22.60082968 10 23 C10.44472656 23.59167969 10.88945312 24.18335938 11.34765625 24.79296875 C12.19650391 25.97826172 12.19650391 25.97826172 13.0625 27.1875 C13.91521484 28.35345703 13.91521484 28.35345703 14.78515625 29.54296875 C16.25702664 32.51983845 15.96747771 33.887486 15 37 C12.03 37.495 12.03 37.495 9 38 C6.69 35.03 4.38 32.06 2 29 C0.700625 30.9490625 0.700625 30.9490625 -0.625 32.9375 C-2.92074855 36.03676054 -3.55931647 36.8694271 -7.375 38 C-8.24125 38 -9.1075 38 -10 38 C-12 35 -12 35 -11.9375 32.75 C-10.64890666 28.97012621 -8.441572 26.1262933 -6 23 C-6.78246094 22.76925781 -7.56492188 22.53851563 -8.37109375 22.30078125 C-9.38300781 21.97464844 -10.39492187 21.64851563 -11.4375 21.3125 C-12.44683594 20.99925781 -13.45617187 20.68601562 -14.49609375 20.36328125 C-17 19 -17 19 -18.03515625 16.54296875 C-18 14 -18 14 -16.875 12.140625 C-15 11 -15 11 -12.625 11.109375 C-11.75875 11.32078125 -10.8925 11.5321875 -10 11.75 C-9.13375 11.95109375 -8.2675 12.1521875 -7.375 12.359375 C-5.56637063 12.84722898 -3.77714027 13.40761991 -2 14 C-2.02320313 13.15695312 -2.04640625 12.31390625 -2.0703125 11.4453125 C-2.08835938 10.34960938 -2.10640625 9.25390625 -2.125 8.125 C-2.14820313 7.03445313 -2.17140625 5.94390625 -2.1953125 4.8203125 C-2 2 -2 2 0 0 Z " fill="#ffffff" transform="translate(202,285)"/>
<path d="M0 0 C4.66137341 1.70319413 7.437626 3.72937666 10 8 C11.46489901 14.05491591 11.11420432 17.41590949 8 23 C5.39187601 26.57409584 2.57183258 27.96451823 -1.77734375 28.875 C-5.89414878 29.10652506 -9.39329249 27.92405066 -13 26 C-16.73387879 22.26612121 -17.880768 19.45463045 -18.3125 14.1875 C-18.23978205 9.78402422 -16.90966369 7.36908427 -14 4 C-9.44787756 0.06862153 -5.81719888 -0.95402062 0 0 Z M-6.8125 9 C-9.29289205 10.85476368 -9.29289205 10.85476368 -9.5 14 C-9.19314349 16.92996578 -9.19314349 16.92996578 -7.875 18.9375 C-5.91444384 20.26649983 -5.91444384 20.26649983 -2.9375 19.875 C0.29255415 19.25349587 0.29255415 19.25349587 2 16 C2.08223366 12.91004903 2.08223366 12.91004903 1 10 C-2.07033549 7.86782258 -3.28399371 7.74541998 -6.8125 9 Z " fill="#ffffff" transform="translate(79,144)"/>
<path d="M0 0 C3.85987396 2.00141613 6.99446399 4.0944825 9 8 C10.32118526 12.83477217 10.47594285 16.76483391 8.375 21.375 C5.80017203 25.81040572 3.03102363 27.42601506 -1.875 28.8125 C-7.1851154 29.13110692 -10.74113785 28.06303915 -14.8125 24.625 C-18.69035071 19.97157915 -19.53158693 17.16640839 -19 11 C-15.61863368 1.92370092 -9.16344665 -1.12614748 0 0 Z M-7.25 8.4375 C-9.34008796 10.01827854 -9.34008796 10.01827854 -9.9375 13.4375 C-10.3047388 16.85980027 -10.3047388 16.85980027 -8.875 18.9375 C-6.36352369 20.36066991 -4.84496772 20.42674516 -2 20 C0.01951062 19.06402685 0.01951062 19.06402685 1 17 C0.76522801 13.35458155 0.76522801 13.35458155 0 10 C-2.66188919 8.66905541 -4.28055061 7.86010706 -7.25 8.4375 Z " fill="#ffffff" transform="translate(119,144)"/>
</svg>
